<svg width="333" height="35" viewBox="0 0 333 35" fill="none" xmlns="http://www.w3.org/2000/svg">
<path d="M26.1759 17.6093L17.3508 8.78417L9.03477 0.468192C8.75524 0.188663 8.29602 0.188663 8.01649 0.468192L0.209647 8.27503C-0.0698822 8.55456 -0.0698822 9.01379 0.209647 9.29332L8.5456 17.6293L8.52563 17.6492L0.209647 25.9652C-0.0698822 26.2447 -0.0698822 26.704 0.209647 26.9835L8.01649 34.7903C8.29602 35.0699 8.75524 35.0699 9.03477 34.7903L17.3508 26.4744L26.1759 17.6492L26.1559 17.6293L26.1759 17.6093Z" fill="#FF9600"/>
<path d="M17.3709 26.4543L8.54577 17.6292L17.3709 8.80404L25.6869 0.488062C25.9664 0.208533 26.4256 0.208533 26.7052 0.488062L34.512 8.2949C34.7915 8.57443 34.7915 9.03366 34.512 9.31319L26.196 17.6292L34.512 25.9452C34.7915 26.2247 34.7915 26.6839 34.512 26.9634L26.7052 34.7703C26.4256 35.0498 25.9664 35.0498 25.6869 34.7703L17.3709 26.4543Z" fill="#0089BD"/>
<path d="M8.53584 17.6293L17.361 26.4544L14.9051 28.9102C14.9151 28.9102 15.0249 24.298 8.53584 17.6293Z" fill="#BF7000"/>
<path d="M108.217 17.6291L115.914 4.80076C116.084 4.51124 115.994 4.13188 115.705 3.96217C115.605 3.90227 115.505 3.87232 115.385 3.87232H105.811C105.592 3.87232 105.392 3.98214 105.292 4.17182L102.717 8.4546L100.141 4.16183C100.031 3.97215 99.8316 3.86234 99.6219 3.86234H90.048C89.7086 3.86234 89.4391 4.13188 89.4391 4.47131C89.4391 4.58113 89.469 4.69094 89.5289 4.79077L97.2259 17.6192L90.4174 28.97L87.2528 22.441C88.7003 21.6723 89.9083 20.5043 90.7169 19.0767C91.5256 17.6491 91.9349 15.912 91.9349 13.8655C91.9349 10.611 90.9366 8.13514 88.9399 6.42801C86.9433 4.72089 84.2478 3.87232 80.8436 3.87232H68.2648C67.9054 3.87232 67.6059 4.16183 67.6059 4.53121V9.36307C67.1267 8.23497 66.3879 7.23665 65.4595 6.438C63.4629 4.73087 60.7574 3.88231 57.3532 3.88231H44.7843C44.425 3.88231 44.1255 4.17182 44.1255 4.54119V30.7271C44.1255 31.0864 44.415 31.3859 44.7843 31.3859H52.8008C53.1602 31.3859 53.4597 31.0964 53.4597 30.7271V23.8686H57.3532C60.7674 23.8686 63.4629 23.02 65.4595 21.3129C66.3979 20.5143 67.1267 19.516 67.6159 18.3879V30.7271C67.6159 31.0864 67.9054 31.3859 68.2747 31.3859H76.1315C76.4909 31.3859 76.7904 31.0964 76.7904 30.7271V23.8686H78.5574L81.9417 30.8968C82.0815 31.1963 82.391 31.3859 82.7204 31.3859H99.6219C99.8415 31.3859 100.041 31.2761 100.141 31.0864L102.717 26.8037L105.292 31.0864C105.402 31.2761 105.602 31.3859 105.811 31.3859H115.385C115.725 31.3859 115.994 31.1164 115.994 30.777C115.994 30.6672 115.964 30.5573 115.904 30.4575L108.217 17.6291ZM55.4663 16.9004H53.4597V10.8406H55.4663C57.8523 10.8406 59.0503 11.8489 59.0503 13.8755C59.0403 15.8921 57.8523 16.9004 55.4663 16.9004ZM78.8669 16.9004H76.7804V10.8406H78.8669C81.2529 10.8406 82.4509 11.8489 82.4509 13.8755C82.4509 15.902 81.2529 16.9004 78.8669 16.9004Z" fill="#0089BD"/>
<path d="M123.32 3.87072H136.04C139.08 3.87072 141.76 4.44604 144.08 5.59669C146.427 6.72118 148.24 8.31639 149.52 10.3823C150.827 12.4483 151.48 14.8541 151.48 17.6C151.48 20.3459 150.827 22.7518 149.52 24.8177C148.24 26.8836 146.427 28.4919 144.08 29.6425C141.76 30.767 139.08 31.3293 136.04 31.3293H123.32V3.87072ZM135.72 26.1122C138.52 26.1122 140.747 25.3538 142.4 23.837C144.08 22.2941 144.92 20.2151 144.92 17.6C144.92 14.9849 144.08 12.919 142.4 11.4022C140.747 9.8593 138.52 9.08785 135.72 9.08785H129.8V26.1122H135.72Z" fill="#FF9600"/>
<path d="M169.927 31.8C167.02 31.8 164.394 31.1855 162.047 29.9564C159.727 28.7273 157.9 27.0405 156.567 24.8961C155.26 22.7256 154.607 20.2936 154.607 17.6C154.607 14.9064 155.26 12.4875 156.567 10.3431C157.9 8.17256 159.727 6.47275 162.047 5.24365C164.394 4.01455 167.02 3.4 169.927 3.4C172.834 3.4 175.447 4.01455 177.767 5.24365C180.087 6.47275 181.914 8.17256 183.247 10.3431C184.58 12.4875 185.247 14.9064 185.247 17.6C185.247 20.2936 184.58 22.7256 183.247 24.8961C181.914 27.0405 180.087 28.7273 177.767 29.9564C175.447 31.1855 172.834 31.8 169.927 31.8ZM169.927 26.3867C171.58 26.3867 173.074 26.0206 174.407 25.2884C175.74 24.53 176.78 23.484 177.527 22.1503C178.3 20.8166 178.687 19.2998 178.687 17.6C178.687 15.9002 178.3 14.3834 177.527 13.0497C176.78 11.716 175.74 10.6831 174.407 9.95083C173.074 9.19245 171.58 8.81326 169.927 8.81326C168.274 8.81326 166.78 9.19245 165.447 9.95083C164.114 10.6831 163.06 11.716 162.287 13.0497C161.54 14.3834 161.167 15.9002 161.167 17.6C161.167 19.2998 161.54 20.8166 162.287 22.1503C163.06 23.484 164.114 24.53 165.447 25.2884C166.78 26.0206 168.274 26.3867 169.927 26.3867Z" fill="#FF9600"/>
<path d="M216.099 3.87072L203.979 31.3293H197.579L185.499 3.87072H192.499L201.019 23.484L209.659 3.87072H216.099Z" fill="#FF9600"/>
<path d="M240.117 26.2298V31.3293H218.437V3.87072H239.597V8.97016H224.877V14.9326H237.877V19.8751H224.877V26.2298H240.117Z" fill="#FF9600"/>
<path d="M251.073 9.04862H242.113V3.87072H266.513V9.04862H257.553V31.3293H251.073V9.04862Z" fill="#FF9600"/>
<path d="M287.033 25.4453H274.033L271.553 31.3293H264.913L277.393 3.87072H283.794L296.314 31.3293H289.514L287.033 25.4453ZM284.993 20.6204L280.553 10.1077L276.113 20.6204H284.993Z" fill="#FF9600"/>
<path d="M299.219 3.87072H305.699V31.3293H299.219V3.87072Z" fill="#FF9600"/>
<path d="M312.344 3.87072H318.824V26.1514H332.863V31.3293H312.344V3.87072Z" fill="#FF9600"/>
</svg>
